Coordinates
version=1
nRows=12
nColumns=34
inDegrees=yes

Units are S.I. units (second, meters, Newtons, ...)
If the header above contains a line with 'inDegrees', this indicates whether rotational values are in degrees (yes) or radians (no).

endheader
time	pelvis_tilt	pelvis_list	pelvis_rotation	pelvis_tx	pelvis_ty	pelvis_tz	hip_flexion_r	hip_adduction_r	hip_rotation_r	knee_angle_r	ankle_angle_r	subtalar_angle_r	mtp_angle_r	hip_flexion_l	hip_adduction_l	hip_rotation_l	knee_angle_l	ankle_angle_l	subtalar_angle_l	mtp_angle_l	lumbar_extension	lumbar_bending	lumbar_rotation	arm_flex_r	arm_add_r	arm_rot_r	elbow_flex_r	pro_sup_r	arm_flex_l	arm_add_l	arm_rot_l	elbow_flex_l	pro_sup_l
      2.26666670	    -20.67009827	      5.14831066	     -0.03889001	      0.45560445	      1.14219084	     -0.08445187	     42.43640592	     -9.30259988	     -3.06680927	     16.22822748	      9.68776963	    -12.14357113	      0.00000000	     40.75029665	     -2.90014933	     -5.05871718	     10.47077587	      3.93755501	    -15.03456060	      0.00000000	     -1.00967064	     -3.30164113	     -0.07803126	     36.71378115	    -20.12667047	     21.47348562	    119.70186488	     99.13008388	     45.90632360	    -26.01765774	     13.38897201	    121.09826406	     88.27463579
      2.28333330	    -20.42962047	      5.14549416	     -0.03681965	      0.47317450	      1.10789235	     -0.08281396	     42.60675913	     -9.47454927	     -2.20830820	     14.60031063	     10.37210825	    -12.72718202	      0.00000000	     41.33117324	     -3.03671030	     -5.71354906	      9.31528448	      6.58837175	    -11.92189747	      0.00000000	     -0.82861837	     -3.47948253	      0.55233476	     39.31692110	    -21.05591216	     23.09820331	    120.84246420	     99.47232905	     48.83122196	    -26.21386376	     15.71145953	    121.39695382	     88.38202204
      2.30000000	    -20.37691258	      4.95052838	     -0.01683358	      0.48809256	      1.07232285	     -0.08211038	     43.71368257	     -9.47755770	     -1.10397851	     14.85088910	     11.19110279	    -13.95083553	      0.00000000	     43.08862520	     -3.27021643	     -6.14434329	     10.46593860	      9.88667508	     -8.97480148	      0.00000000	     -0.61208884	     -3.37489412	      1.38891786	     42.37979995	    -21.54545820	     24.05325690	    121.31888581	     99.73900424	     51.29107961	    -25.59523639	     16.99268303	    122.02817390	     88.51843625
      2.31666670	    -20.45924008	      4.57238019	      0.03363133	      0.50342619	      1.03423852	     -0.08376654	     45.46863039	     -9.35874140	     -0.20394386	     16.72392873	     11.89244061	    -16.02352138	      0.00000000	     45.90635327	     -3.73851472	     -7.02895215	     13.97153681	     13.03774149	     -6.66552800	      0.00000000	     -0.77806782	     -2.96556839	      2.03779392	     45.49005123	    -22.05216123	     24.94639244	    122.36634425	     99.97301527	     53.57731143	    -24.95072490	     18.10011977	    123.40628234	     88.74471717
      2.33333330	    -20.43053210	      4.14137085	      0.02014638	      0.52010829	      0.98224652	     -0.08466796	     48.21326884	     -8.96957834	      0.92742607	     20.89567784	     13.32828670	    -18.38166840	      0.00000000	     49.94196876	     -4.83100586	     -8.62885620	     20.51604769	     17.63247213	     -2.75528519	      0.00000000	     -0.72891874	     -2.76054591	      2.63811726	     49.58498646	    -22.31627983	     25.63187489	    122.72025140	    100.18933818	     57.45386406	    -24.12869037	     19.39072309	    124.56103087	     89.22573948
      2.35000000	    -20.85359868	      3.58531389	      0.19513118	      0.53377706	      0.94056612	     -0.08219523	     51.65203806	     -8.42308789	      1.90075886	     25.68974695	     13.20922573	    -20.18999095	      0.00000000	     54.21212735	     -5.86859096	     -8.69791827	     26.95492866	     19.88283951	     -1.19706546	      0.00000000	     -0.63762762	     -2.42186897	      3.29466671	     53.34769642	    -22.16368120	     26.14984417	    123.39567935	    100.32281560	     60.75230900	    -22.88968793	     20.55008122	    125.89896982	     89.63273463
      2.36666670	    -20.97671743	      2.76213494	     -0.07169105	      0.54798036	      0.89599186	     -0.08179765	     55.21630618	     -7.31410332	      2.61575618	     31.40799285	     13.36591174	    -22.46321778	      0.00000000	     58.28858617	     -7.46540643	     -8.24383012	     33.52278495	     20.84614771	      1.40967683	      0.00000000	     -1.03643433	     -1.75975570	      4.11433941	     57.27891696	    -21.91268858	     26.83433494	    123.64938124	    100.46838557	     63.85402711	    -21.35534595	     21.53585075	    126.89251905	     90.09743776
      2.38333330	    -21.40556422	      2.15547434	      0.02130649	      0.55795434	      0.85634581	     -0.08028471	     60.54403689	     -6.49548167	      3.78547758	     40.30478660	     11.49809780	    -25.00604289	      0.00000000	     63.38462140	     -8.82838051	     -7.42871572	     41.80127303	     20.33067295	      2.86447394	      0.00000000	     -1.82210441	     -1.33685899	      4.64408616	     61.57277160	    -20.93877535	     27.59140945	    123.33540109	    100.64929403	     66.37191978	    -19.50990808	     22.32502392	    127.12819203	     90.61856539
      2.40000000	    -20.77812184	      1.71442203	     -0.09030342	      0.56623516	      0.81286837	     -0.08167060	     66.76646569	     -6.16405217	      4.82425753	     52.47761534	     11.36120815	    -25.74074727	      0.00000000	     68.69495198	    -10.11350706	     -5.90628095	     52.38240198	     20.34496010	      3.10637200	      0.00000000	     -4.57635887	     -0.95612101	      5.16964283	     66.70175426	    -19.55970218	     27.47430256	    122.31166539	    100.73471167	     69.98057495	    -17.44314102	     22.09071816	    127.29368705	     90.82570996
      2.41666670	    -20.52223409	      0.99587221	     -0.39029765	      0.57476957	      0.77323371	     -0.08054471	     73.92712166	     -6.00256274	      4.76559641	     65.61781253	     13.64599296	    -23.90881609	      0.00000000	     75.43586162	    -11.30770203	     -3.18625039	     64.12575063	     21.78913780	      3.82671866	      0.00000000	     -7.01996431	      0.17216228	      5.58148951	     72.29012174	    -18.36247969	     29.86171264	    120.80486872	    101.00686424	     72.45281697	    -15.92508245	     22.38207264	    127.94059718	     91.32200030
      2.43333330	    -19.62639562	      0.55773451	     -0.53128041	      0.58275628	      0.74345370	     -0.08175821	     79.00848376	     -6.71754576	      4.27712967	     76.29780851	     17.53496889	    -19.66311739	      0.00000000	     80.70034894	    -11.71873428	     -0.46400578	     74.32510591	     23.10015204	      4.12395283	      0.00000000	    -10.60243337	      1.12231577	      5.77518754	     76.65527611	    -16.93957054	     30.91632490	    119.18582233	    101.20109913	     74.45920758	    -13.96252249	     21.85540516	    128.21194942	     91.74791085
      2.45000000	    -19.04379151	      0.55380308	     -0.80973147	      0.59217843	      0.71459854	     -0.08458055	     82.95972492	     -7.75381323	      4.07004720	     84.31341902	     21.76265034	    -15.30366945	      0.00000000	     85.12883717	    -11.67751750	      1.60878470	     82.76206941	     24.34589959	      4.10630277	      0.00000000	    -14.03266418	      1.43078216	      5.98149798	     80.51982479	    -15.43165317	     32.02682025	    117.70750461	    101.38921040	     76.04295486	    -11.61489938	     21.52939445	    128.32884669	     92.18147583
